<svg width="35" height="56" viewBox="0 0 35 56" fill="none" xmlns="http://www.w3.org/2000/svg">
<path opacity="0.2" d="M18.176 55.928C17.4507 55.928 16.7893 55.8213 16.192 55.608C15.6373 55.4373 15.168 55.0747 14.784 54.52C13.0347 54.8187 11.3067 55.0533 9.6 55.224C7.89333 55.3947 6.29333 55.48 4.8 55.48C3.52 55.48 2.51733 55.16 1.792 54.52C1.06667 53.9227 0.704 53.0693 0.704 51.96C0.704 51.32 1.06667 50.5947 1.792 49.784C2.51733 48.9733 3.86133 48.2053 5.824 47.48C7.78667 46.712 10.6453 46.1147 14.4 45.688C14.6987 43.6827 15.1467 41.3147 15.744 38.584C16.3413 35.8107 17.0667 32.8667 17.92 29.752C18.7733 26.5947 19.776 23.48 20.928 20.408C19.3493 22.072 17.6853 23.48 15.936 24.632C14.2293 25.784 12.5867 26.6587 11.008 27.256C9.472 27.8533 8.14933 28.152 7.04 28.152C6.144 28.152 5.39733 28.0027 4.8 27.704C4.24533 27.4053 3.968 26.8507 3.968 26.04C3.968 25.016 4.45867 24.0773 5.44 23.224C6.42133 22.328 7.488 21.4533 8.64 20.6C10.3893 19.2773 12.2667 17.6987 14.272 15.864C16.32 14.0293 18.2187 12.0667 19.968 9.976C21.76 7.88533 23.1467 5.83733 24.128 3.832C24.5973 2.936 25.1093 2.232 25.664 1.72C26.2187 1.16533 27.1147 0.887997 28.352 0.887997C29.5893 0.887997 30.4853 1.44266 31.04 2.552C31.5947 3.61866 31.872 4.89866 31.872 6.392C31.872 6.98933 31.7013 8.22666 31.36 10.104C31.0187 11.9387 30.5493 14.2 29.952 16.888C29.3547 19.5333 28.6933 22.456 27.968 25.656C27.2427 28.8133 26.496 32.056 25.728 35.384C24.96 38.712 24.2347 41.9333 23.552 45.048C24.96 45.0053 26.4107 44.984 27.904 44.984C29.696 44.984 31.2533 45.1333 32.576 45.432C33.8987 45.7307 34.56 46.3707 34.56 47.352C34.56 48.376 34.112 49.144 33.216 49.656C32.3627 50.1253 31.3173 50.552 30.08 50.936C28.928 51.2773 27.6267 51.64 26.176 52.024C24.7253 52.4507 23.1893 52.8347 21.568 53.176C21.1413 54.1573 20.6293 54.8613 20.032 55.288C19.4347 55.7147 18.816 55.928 18.176 55.928Z" fill="white"/>
</svg>
