<svg width="41" height="53" viewBox="0 0 41 53" fill="none" xmlns="http://www.w3.org/2000/svg">
<path opacity="0.2" d="M6.64006 52.752C4.50673 52.752 2.99206 52.24 2.09606 51.216C1.24273 50.2347 0.816063 49.2107 0.816063 48.144C0.816063 47.2053 1.0294 46.3307 1.45606 45.52C1.9254 44.6667 2.73606 43.984 3.88806 43.472C5.04006 42.96 6.68273 42.7467 8.81606 42.832C10.9494 41.7227 13.1041 40.3573 15.2801 38.736C17.4987 37.1147 19.6107 35.3227 21.6161 33.36C23.6641 31.3973 25.4774 29.392 27.0561 27.344C28.6774 25.2533 29.9361 23.2053 30.8321 21.2C31.7707 19.152 32.2401 17.232 32.2401 15.44C32.2401 13.52 31.6427 12.0693 30.4481 11.088C29.2961 10.1067 27.6747 9.616 25.5841 9.616C23.7921 9.616 22.1494 9.82933 20.6561 10.256C19.1627 10.64 17.8401 11.1093 16.6881 11.664C15.5361 12.2187 14.5547 12.7093 13.7441 13.136C12.9761 13.52 12.3574 13.712 11.8881 13.712C11.0774 13.712 10.3521 13.3707 9.71206 12.688C9.07206 11.9627 8.88006 11.024 9.13606 9.872C9.30673 9.104 9.81873 8.18666 10.6721 7.12C11.5254 6.05333 12.6987 4.98666 14.1921 3.92C15.6854 2.85333 17.4561 1.97866 19.5041 1.296C21.5947 0.570663 23.9414 0.207996 26.5441 0.207996C30.7254 0.207996 34.1174 1.488 36.7201 4.048C39.3654 6.608 40.6881 10.512 40.6881 15.76C40.6881 19.216 39.7707 22.608 37.9361 25.936C36.1441 29.264 33.7547 32.4213 30.7681 35.408C27.7814 38.3947 24.5174 41.1253 20.9761 43.6C24.1761 43.472 26.6721 43.28 28.4641 43.024C30.2561 42.7253 31.6854 42.4693 32.7521 42.256C33.8614 42.0427 34.9281 41.936 35.9521 41.936C37.4027 41.936 38.5334 42.2347 39.3441 42.832C40.1547 43.4293 40.5601 44.2827 40.5601 45.392C40.5601 46.2027 40.3467 46.992 39.9201 47.76C39.5361 48.528 38.7681 49.232 37.6161 49.872C36.4641 50.4693 34.8001 50.9387 32.6241 51.28C30.4481 51.664 27.5894 51.856 24.0481 51.856C21.9574 51.856 19.8027 51.8347 17.5841 51.792C15.4081 51.7493 13.2961 51.6853 11.2481 51.6C10.0534 52.0267 9.11473 52.3253 8.43206 52.496C7.79206 52.6667 7.19473 52.752 6.64006 52.752Z" fill="white"/>
</svg>
