<svg width="37" height="56" viewBox="0 0 37 56" fill="none" xmlns="http://www.w3.org/2000/svg">
<path opacity="0.2" d="M36.808 32.336C36.808 33.9573 36.168 35.664 34.888 37.456C33.608 39.2053 31.944 40.9333 29.896 42.64C27.848 44.3467 25.608 45.968 23.176 47.504C20.7867 48.9973 18.4187 50.32 16.072 51.472C13.768 52.6667 11.72 53.584 9.928 54.224C8.136 54.9067 6.83467 55.248 6.024 55.248C4.488 55.248 3.22933 54.9707 2.248 54.416C1.26667 53.8613 0.776 52.88 0.776 51.472C0.776 50.4053 1.032 49.5733 1.544 48.976C2.056 48.3787 2.78133 47.8667 3.72 47.44C5.98133 46.416 8.30667 45.328 10.696 44.176C13.0853 43.024 15.368 41.8507 17.544 40.656C19.7627 39.4613 21.7253 38.288 23.432 37.136C25.1813 35.984 26.568 34.896 27.592 33.872C28.616 32.8053 29.128 31.8667 29.128 31.056C29.128 30.1173 28.7653 29.4347 28.04 29.008C27.3573 28.5813 26.44 28.304 25.288 28.176C24.136 28.0053 22.856 27.92 21.448 27.92C19.528 27.92 17.928 28.0053 16.648 28.176C15.368 28.3467 14.2587 28.5173 13.32 28.688C12.424 28.816 11.592 28.88 10.824 28.88C9.544 28.88 8.62667 28.6027 8.072 28.048C7.51733 27.4507 7.24 26.6613 7.24 25.68C7.24 24.8693 7.53867 24.0373 8.136 23.184C8.73333 22.3307 9.69333 21.6907 11.016 21.264C13.7893 20.368 16.2427 19.3867 18.376 18.32C20.552 17.2107 22.2373 15.9947 23.432 14.672C24.6693 13.3493 25.288 11.92 25.288 10.384C25.288 9.91466 25.0533 9.59466 24.584 9.424C24.1573 9.25333 23.2613 9.168 21.896 9.168C20.6587 9.168 19.272 9.31733 17.736 9.616C16.2427 9.91467 14.7707 10.2773 13.32 10.704C11.912 11.088 10.696 11.4293 9.672 11.728C8.69067 12.0267 8.072 12.176 7.816 12.176C5.93867 12.176 5 11.2373 5 9.36C5 8.93333 5.32 8.25066 5.96 7.312C6.6 6.37333 7.56 5.41333 8.84 4.432C10.12 3.408 11.6987 2.53333 13.576 1.808C15.496 1.08266 17.7147 0.719997 20.232 0.719997C22.7067 0.719997 24.8613 1.21066 26.696 2.192C28.5733 3.17333 30.024 4.51733 31.048 6.224C32.1147 7.888 32.648 9.78666 32.648 11.92C32.648 13.5413 32.136 15.1627 31.112 16.784C30.1307 18.3627 28.8933 19.7707 27.4 21.008C30.2587 21.8613 32.5413 23.3333 34.248 25.424C35.9547 27.472 36.808 29.776 36.808 32.336Z" fill="white"/>
</svg>
